<svg width="176" height="38" viewBox="0 0 176 38" fill="none" xmlns="http://www.w3.org/2000/svg">
<path d="M20.074 31H0.652V3.7H19.684V9.823H7.399V14.113H18.67V20.158H7.399V24.877H20.074V31ZM38.5347 31V28.153C38.0407 29.141 37.1697 29.934 35.9217 30.532C34.6997 31.104 33.3737 31.39 31.9437 31.39C28.9797 31.39 26.7567 30.48 25.2747 28.66C23.7927 26.84 23.0517 24.305 23.0517 21.055C23.0517 18.039 23.8187 15.634 25.3527 13.84C26.9127 12.02 29.1357 11.11 32.0217 11.11C33.0097 11.11 33.9457 11.292 34.8297 11.656C35.7397 12.02 36.4807 12.462 37.0527 12.982C37.6247 13.476 37.9497 13.892 38.0277 14.23V3.7H44.4237V31H38.5347ZM33.8547 25.696C35.0767 25.696 36.0777 25.267 36.8577 24.409C37.6377 23.551 38.0277 22.433 38.0277 21.055C38.0277 19.703 37.6247 18.624 36.8187 17.818C36.0387 16.986 34.9857 16.57 33.6597 16.57C32.4897 16.57 31.5277 16.986 30.7737 17.818C30.0457 18.624 29.6817 19.703 29.6817 21.055C29.6817 22.459 30.0587 23.59 30.8127 24.448C31.5667 25.28 32.5807 25.696 33.8547 25.696ZM61.4938 31V28.309C60.9478 29.271 60.1158 30.051 58.9978 30.649C57.8798 31.247 56.6708 31.546 55.3708 31.546C54.1488 31.546 53.0178 31.247 51.9778 30.649C50.9378 30.051 50.1188 29.232 49.5208 28.192C48.9228 27.152 48.6238 26.021 48.6238 24.799V11.5H55.1758V22.498C55.1758 23.356 55.4748 24.084 56.0728 24.682C56.6708 25.28 57.3988 25.592 58.2568 25.618C59.1148 25.618 59.8428 25.319 60.4408 24.721C61.0648 24.097 61.3768 23.356 61.3768 22.498L61.3378 11.5H67.8898V31H61.4938ZM80.3528 31.546C78.4548 31.546 76.6738 31.273 75.0098 30.727C73.3718 30.155 72.0328 29.362 70.9928 28.348L73.8008 23.863C74.6848 24.565 75.7248 25.137 76.9208 25.579C78.1168 25.995 79.2868 26.203 80.4308 26.203C81.1848 26.203 81.7568 26.112 82.1468 25.93C82.5368 25.722 82.7318 25.449 82.7318 25.111C82.7318 24.799 82.5758 24.539 82.2638 24.331C81.9778 24.123 81.5098 23.941 80.8598 23.785L77.4668 22.966C75.4908 22.498 74.0348 21.783 73.0988 20.821C72.1888 19.859 71.7338 18.65 71.7338 17.194C71.7338 15.166 72.5138 13.541 74.0738 12.319C75.6338 11.097 77.7398 10.486 80.3918 10.486C82.1078 10.486 83.7328 10.746 85.2668 11.266C86.8008 11.786 88.0488 12.488 89.0108 13.372L86.1248 17.818C84.0448 16.518 82.1208 15.868 80.3528 15.868C79.6768 15.868 79.1568 15.972 78.7928 16.18C78.4288 16.362 78.2468 16.609 78.2468 16.921C78.2468 17.181 78.3768 17.402 78.6368 17.584C78.9228 17.766 79.3908 17.935 80.0408 18.091L83.4338 18.91C85.5138 19.43 87.0088 20.171 87.9188 21.133C88.8548 22.069 89.3228 23.278 89.3228 24.76C89.3228 26.866 88.5298 28.53 86.9438 29.752C85.3578 30.948 83.1608 31.546 80.3528 31.546ZM105.138 11.11C108.102 11.11 110.325 12.02 111.807 13.84C113.289 15.66 114.03 18.195 114.03 21.445C114.03 24.461 113.25 26.879 111.69 28.699C110.156 30.493 107.946 31.39 105.06 31.39C103.942 31.39 102.941 31.208 102.057 30.844C101.199 30.48 100.497 30.051 99.9515 29.557C99.4315 29.063 99.1325 28.634 99.0545 28.27V37.669H92.6585V11.5H98.5475V14.347C99.0415 13.359 99.8995 12.579 101.121 12.007C102.369 11.409 103.708 11.11 105.138 11.11ZM103.422 25.93C104.592 25.93 105.541 25.527 106.269 24.721C107.023 23.889 107.4 22.797 107.4 21.445C107.4 20.041 107.023 18.923 106.269 18.091C105.515 17.233 104.501 16.804 103.227 16.804C102.005 16.804 101.004 17.233 100.224 18.091C99.4445 18.949 99.0545 20.067 99.0545 21.445C99.0545 22.797 99.4445 23.889 100.224 24.721C101.03 25.527 102.096 25.93 103.422 25.93ZM120.844 8.653C119.778 8.653 118.855 8.276 118.075 7.522C117.321 6.768 116.944 5.858 116.944 4.792C116.944 3.726 117.321 2.816 118.075 2.062C118.855 1.308 119.778 0.930999 120.844 0.930999C121.884 0.930999 122.781 1.321 123.535 2.101C124.289 2.855 124.666 3.752 124.666 4.792C124.666 5.858 124.289 6.768 123.535 7.522C122.781 8.276 121.884 8.653 120.844 8.653ZM124.12 11.5V31H117.568V11.5H124.12ZM140.739 10.993C141.311 10.993 141.857 11.071 142.377 11.227V17.428H139.491C137.983 17.428 136.891 17.792 136.215 18.52C135.565 19.222 135.24 20.405 135.24 22.069V31H128.688V11.5H135.084V14.542C135.63 13.45 136.397 12.592 137.385 11.968C138.373 11.318 139.491 10.993 140.739 10.993ZM150.336 22.927C150.336 23.837 150.804 24.591 151.74 25.189C152.676 25.787 153.742 26.086 154.938 26.086C156.082 26.086 157.174 25.93 158.214 25.618C159.254 25.28 160.047 24.851 160.593 24.331L164.142 28.231C163.31 29.193 162.023 29.96 160.281 30.532C158.539 31.104 156.667 31.39 154.665 31.39C152.481 31.39 150.557 30.961 148.893 30.103C147.255 29.245 145.981 28.049 145.071 26.515C144.161 24.955 143.706 23.161 143.706 21.133C143.706 19.157 144.161 17.415 145.071 15.907C145.981 14.373 147.242 13.19 148.854 12.358C150.492 11.526 152.338 11.11 154.392 11.11C157.694 11.11 160.281 11.981 162.153 13.723C164.025 15.439 164.961 17.87 164.961 21.016C164.961 21.614 164.922 22.251 164.844 22.927H150.336ZM154.392 15.907C153.664 15.907 152.975 16.076 152.325 16.414C151.701 16.726 151.194 17.116 150.804 17.584C150.44 18.052 150.258 18.507 150.258 18.949H158.409C158.409 18.117 158.045 17.402 157.317 16.804C156.615 16.206 155.64 15.907 154.392 15.907ZM167.1 27.373C167.1 26.073 167.477 25.059 168.231 24.331C168.985 23.577 169.999 23.2 171.273 23.2C172.573 23.2 173.587 23.577 174.315 24.331C175.069 25.059 175.446 26.073 175.446 27.373C175.446 28.647 175.069 29.661 174.315 30.415C173.587 31.169 172.573 31.546 171.273 31.546C169.999 31.546 168.985 31.169 168.231 30.415C167.477 29.661 167.1 28.647 167.1 27.373Z" fill="white"/>
</svg>
